<?xml version="1.0" encoding="UTF-8"?>
<svg width="1473px" height="614px" viewBox="0 0 1473 614" version="1.1" xmlns="http://www.w3.org/2000/svg" xmlns:xlink="http://www.w3.org/1999/xlink">
    <title>logo-inverted</title>
    <g id="logo-inverted" stroke="none" fill="none" fill-rule="nonzero">
        <path d="M179.7,223.8 C161.9,223.8 153,211.5 153,186.9 C153,174.1 155.5,160.6 160.5,146.4 C165.1,132.8 170.4,123 176.4,117 C180.2,113.2 183.3,111.3 185.7,111.3 C188.3,111.3 190.3,113.75 191.7,118.65 C193.1,123.55 194.4,128.6 195.6,133.8 C202,156.8 212.2,175.1 226.2,188.7 C243.8,172.3 262.4,149.9 282,121.5 L269.4,120 C264.2,118.8 261.6,116.8 261.6,114 C261.6,110.6 264,109.2 268.8,109.8 C271,110.2 273.75,110.5 277.05,110.7 C280.35,110.9 284.2,111.1 288.6,111.3 C293.6,103.9 297.85,97.3 301.35,91.5 C304.85,85.7 307.6,80.6 309.6,76.2 C313.4,67.6 319,59.7 326.4,52.5 C333,46.5 338.3,43.5 342.3,43.5 C344.5,43.5 345.6,44.7 345.6,47.1 C345.6,51.1 342.7,57.5 336.9,66.3 C332.3,73.7 327.3,81.15 321.9,88.65 C316.5,96.15 310.9,103.8 305.1,111.6 C315.9,111 326.7,109.6 337.5,107.4 C348.3,105.2 358.3,102.05 367.5,97.95 C376.7,93.85 384.25,88.6 390.15,82.2 C396.05,75.8 399.4,68 400.2,58.8 C400.6,53 399.3,47.5 396.3,42.3 C393.3,37.1 388.9,32.3 383.1,27.9 C370.1,17.5 352.1,11.3 329.1,9.3 C323.5,8.7 317.6,8.4 311.4,8.4 C280.4,8.4 252,14.7 226.2,27.3 C200.6,39.7 187.8,52.8 187.8,66.6 C187.8,74.2 192.8,80.9 202.8,86.7 C206.8,88.3 208.8,89.5 208.8,90.3 C208.8,91.3 207.2,91.8 204,91.8 C198.2,91.8 193.5,91.1 189.9,89.7 C174.5,82.1 166.8,73 166.8,62.4 C166.8,47.4 179.9,33.7 206.1,21.3 C233.9,8.3 266.2,1.8 303,1.8 C309.8,1.8 318,2.15 327.6,2.85 C337.2,3.55 347.1,4.9 357.3,6.9 C367.5,8.9 377.05,11.95 385.95,16.05 C394.85,20.15 402.1,25.6 407.7,32.4 C413.3,39.2 416.1,47.8 416.1,58.2 C416.1,66.4 413.75,73.65 409.05,79.95 C404.35,86.25 398.15,91.7 390.45,96.3 C382.75,100.9 374.25,104.75 364.95,107.85 C355.65,110.95 346.35,113.35 337.05,115.05 C327.75,116.75 319.3,117.8 311.7,118.2 C321.7,118.8 332.3,119.6 343.5,120.6 C354.7,121.6 365.25,123.25 375.15,125.55 C385.05,127.85 393.15,131.2 399.45,135.6 C405.75,140 408.9,146 408.9,153.6 C408.9,161.6 406.95,169.4 403.05,177 C399.15,184.6 392.9,191.9 384.3,198.9 C364.1,215.5 337.3,223.8 303.9,223.8 C296.9,223.8 289.65,223.4 282.15,222.6 C274.65,221.8 266.9,220.6 258.9,219 C246.1,216.2 234,209.8 222.6,199.8 C204.4,215.8 190.1,223.8 179.7,223.8 Z M300.9,215.4 C326.9,215.4 349,208.5 367.2,194.7 C382.8,182.7 390.6,170.7 390.6,158.7 C390.6,151.9 387.85,146.2 382.35,141.6 C376.85,137 369.95,133.4 361.65,130.8 C353.35,128.2 344.75,126.3 335.85,125.1 C326.95,123.9 318.9,123.2 311.7,123 C304.5,122.8 299.5,122.8 296.7,123 C289.7,132.2 280.7,142.6 269.7,154.2 C258.7,165.8 245.6,178.6 230.4,192.6 C240.2,201.6 251.2,207.6 263.4,210.6 C276,213.8 288.5,215.4 300.9,215.4 Z M181.5,214.5 C191.5,214.5 203.8,208.2 218.4,195.6 C202,181 190.6,165.3 184.2,148.5 C183,145.5 181.7,144 180.3,144 C177.9,144 175,148.1 171.6,156.3 C169,163.1 166.9,170.7 165.3,179.1 C164.7,182.3 164.4,185.6 164.4,189 C164.4,206 170.1,214.5 181.5,214.5 Z M559.8,112.2 C565.8,112.2 570.1,114.1 572.7,117.9 C574.3,120.1 575.1,122.6 575.1,125.4 C575.1,133.8 568.3,143 554.7,153 C550.7,155.8 546.45,158.35 541.95,160.65 C537.45,162.95 532.6,164.6 527.4,165.6 L514.5,168.3 C509.7,176.9 507.3,184.1 507.3,189.9 C507.3,197.9 512,201.9 521.4,201.9 C528.8,201.9 537.8,198.8 548.4,192.6 C562.6,184.4 574.8,173 585,158.4 C585.740066,157.289901 586.458738,156.436535 587.156016,155.839902 C584.718185,153.684776 583.5,151.038162 583.5,147.9 C583.5,143.7 585.3,139.7 588.9,135.9 C593.1,131.1 600.1,126.5 609.9,122.1 C620.5,117.3 630.2,114.9 639,114.9 C646.8,114.9 652.7,116.8 656.7,120.6 C658.5,122.4 659.4,124.6 659.4,127.2 C659.4,130 658.5,132.5 656.7,134.7 C654.9,136.9 652.9,138 650.7,138 C646.7,138 644.5,135.3 644.1,129.9 C644.1,126.1 643.5,123.9 642.3,123.3 C641.1,122.7 637.9,122.4 632.7,122.4 C626.1,122.4 618.7,124.6 610.5,129 C600.7,134 596.1,140 596.7,147 C597.1,151 604.7,153 619.5,153 C639.7,153 649.8,157.9 649.8,167.7 C649.8,178.3 641.1,188.9 623.7,199.5 C612.7,206.3 599.3,212.3 583.5,217.5 C581.3,218.3 579.6,218.7 578.4,218.7 C577.6,218.7 577.2,218.4 577.2,217.8 C577.2,215.2 584,210.4 597.6,203.4 C601,201.8 604.1,200.15 606.9,198.45 C609.7,196.75 612.1,195.2 614.1,193.8 C626.3,184.8 632.4,177 632.4,170.4 C632.4,165.4 627.5,162.9 617.7,162.9 C604.774389,162.673235 595.512625,160.968075 589.914708,157.784522 C589.567746,158.553476 589.028694,159.459009 588.3,160.5 C568.9,189.7 547,205.7 522.6,208.5 C521.8,208.7 521.05,208.8 520.35,208.8 L518.1,208.8 C512.3,208.8 507.2,207.4 502.8,204.6 C497,200.6 494.1,194.8 494.1,187.2 C494.1,185.99053 494.176143,184.7419 494.328429,183.454112 C479.764465,198.202445 463.988164,206.550539 447,208.5 C446.2,208.7 445.45,208.8 444.75,208.8 L442.5,208.8 C436.7,208.8 431.6,207.4 427.2,204.6 C421.4,200.6 418.5,194.8 418.5,187.2 C418.5,179 422,169 429,157.2 C438.4,141.8 452.2,128.3 470.4,116.7 C475,113.7 479.6,112.2 484.2,112.2 C490.2,112.2 494.5,114.1 497.1,117.9 C498.7,120.1 499.5,122.6 499.5,125.4 C499.5,133.8 492.7,143 479.1,153 C475.1,155.8 470.85,158.35 466.35,160.65 C461.85,162.95 457,164.6 451.8,165.6 L438.9,168.3 C434.1,176.9 431.7,184.1 431.7,189.9 C431.7,197.9 436.4,201.9 445.8,201.9 C453.2,201.9 462.2,198.8 472.8,192.6 C481.468491,187.594252 489.391666,181.395998 496.569526,174.005239 C498.316112,168.881145 500.993535,163.279469 504.6,157.2 C514,141.8 527.8,128.3 546,116.7 C550.6,113.7 555.2,112.2 559.8,112.2 Z M490.2,119.1 C487.6,119.1 482.3,122.3 474.3,128.7 C468.5,133.7 462.85,139.05 457.35,144.75 C451.85,150.45 446.6,156.5 441.6,162.9 C441.4,163.1 441.7,163.2 442.5,163.2 C448.1,163.2 455.3,160.7 464.1,155.7 C476.5,148.7 485.2,139.7 490.2,128.7 C491.6,125.9 492.3,123.6 492.3,121.8 C492.3,120 491.6,119.1 490.2,119.1 Z M565.8,119.1 C563.2,119.1 557.9,122.3 549.9,128.7 C544.1,133.7 538.45,139.05 532.95,144.75 C527.45,150.45 522.2,156.5 517.2,162.9 C517,163.1 517.3,163.2 518.1,163.2 C523.7,163.2 530.9,160.7 539.7,155.7 C552.1,148.7 560.8,139.7 565.8,128.7 C567.2,125.9 567.9,123.6 567.9,121.8 C567.9,120 567.2,119.1 565.8,119.1 Z M834.3,-3.55271368e-13 C859.3,-3.55271368e-13 871.8,12.3 871.8,36.9 C871.8,50.5 866.7,67.7 856.5,88.5 C854.5,92.3 850.5,99.55 844.5,110.25 C838.5,120.95 830.5,134.9 820.5,152.1 C812.5,165.7 805.8,178.05 800.4,189.15 C795,200.25 790.8,210 787.8,218.4 L796.5,209.1 C799.1,206.3 806.2,198.4 817.8,185.4 C829.4,172.4 845.5,154.2 866.1,130.8 C891.1,102.4 911.1,82.9 926.1,72.3 C929.5,69.9 935,68.7 942.6,68.7 C951.4,68.7 954.7,70.4 952.5,73.8 C944.5,86.6 937.3,102.5 930.9,121.5 C923.9,142.9 920.4,160.7 920.4,174.9 C920.4,192.1 925.5,202.2 935.7,205.2 C940.5,206.6 945.7,207.3 951.3,207.3 C977.1,207.3 1001.5,192.8 1024.5,163.8 C1046.5,136.4 1057.5,109.6 1057.5,83.4 C1057.5,63.8 1050.2,50.9 1035.6,44.7 C1033.8,43.7 1032.05,43.05 1030.35,42.75 C1028.65,42.45 1027,42.3 1025.4,42.3 C1023.6,42.3 1022.3,42.4 1021.5,42.6 C1019.9,43 1019.1,42.6 1019.1,41.4 C1019.1,39.2 1020.8,36.75 1024.2,34.05 C1027.6,31.35 1031.6,30 1036.2,30 C1039,30 1041.3,30.4 1043.1,31.2 C1062.1,37.6 1071.6,52.1 1071.6,74.7 C1071.6,84.3 1070.2,94.2 1067.4,104.4 C1064.6,114.6 1060.2,125.1 1054.2,135.9 C1042.6,157.5 1027.8,175.5 1009.8,189.9 C990,205.5 970,213.3 949.8,213.3 C946.6,213.3 943.45,213.1 940.35,212.7 C937.25,212.3 934.1,211.7 930.9,210.9 C913.7,206.3 905.1,192.6 905.1,169.8 C905.1,148.2 912.7,121.2 927.9,88.8 C928.9,86.4 929.4,84.8 929.4,84 C929.4,82.4 928.9,81.6 927.9,81.6 C927.3,81.6 926.5,81.9 925.5,82.5 C911.7,90.3 890.6,111.6 862.2,146.4 C824.2,193.2 799.9,222 789.3,232.8 C788.3,233.8 786.8,234.3 784.8,234.3 C782.2,234.3 779.65,233.6 777.15,232.2 C774.65,230.8 773.3,229.2 773.1,227.4 C773.7,215.2 788,181.8 816,127.2 C843.8,74 857.7,40.9 857.7,27.9 C857.7,14.7 849.6,8.1 833.4,8.1 C809.6,8.1 780.7,19.1 746.7,41.1 C711.5,63.7 693.9,84 693.9,102 C693.9,110.4 698.6,117.2 708,122.4 C712.6,125 718.7,126.3 726.3,126.3 C732.5,126.3 739.9,125.4 748.5,123.6 L758.4,121.35 C760.6,120.85 761.8,120.6 762,120.6 C762.6,120.6 762.9,120.7 762.9,120.9 C762.9,121.5 761.7,122.7 759.3,124.5 C753.1,129.5 742.4,132 727.2,132 C718.6,132 710.5,130.8 702.9,128.4 C689.9,123.8 683.4,115.4 683.4,103.2 C683.4,95.2 686.4,86.1 692.4,75.9 C701.2,60.9 721,44.7 751.8,27.3 C784,9.1 811.5,-3.55271368e-13 834.3,-3.55271368e-13 Z M1266,54.3 C1273,54.3 1276.5,55.7 1276.5,58.5 C1276.5,59.1 1275.9,59.9 1274.7,60.9 C1248.5,80.3 1225.3,116.8 1205.1,170.4 C1205.3,170.2 1206.35,169.25 1208.25,167.55 C1210.15,165.85 1212.9,163.3 1216.5,159.9 C1220.3,156.5 1223.55,153.35 1226.25,150.45 C1228.95,147.55 1231.3,145 1233.3,142.8 C1243.1,131.8 1253.9,123.6 1265.7,118.2 C1268.5,117 1271.7,116.4 1275.3,116.4 C1283.5,116.4 1287.6,119.4 1287.6,125.4 C1287.6,129.2 1285.7,133.7 1281.9,138.9 C1260.3,169.1 1249.5,189.4 1249.5,199.8 C1249.5,202 1250.2,203.4 1251.6,204 C1254.8,205.4 1262.7,202.1 1275.3,194.1 C1290.1,184.5 1302.7,172.6 1313.1,158.4 C1315.3,155.4 1317.3,153.9 1319.1,153.9 C1319.7,153.9 1320,154.1 1320,154.5 C1320,155.5 1319.1,157.4 1317.3,160.2 C1308.5,174 1296.3,186.2 1280.7,196.8 C1266.7,206 1257.2,210.2 1252.2,209.4 C1247.8,209.8 1243.6,208.65 1239.6,205.95 C1235.6,203.25 1233.6,200.2 1233.6,196.8 C1233.6,190.6 1239.5,178.7 1251.3,161.1 C1264.3,141.5 1270.8,130.2 1270.8,127.2 C1270.8,125.4 1269.8,124.5 1267.8,124.5 C1262.6,124.5 1252.6,132.2 1237.8,147.6 C1229,156.4 1220.75,165.85 1213.05,175.95 C1205.35,186.05 1198.1,196.7 1191.3,207.9 C1190.9,208.3 1189.8,208.5 1188,208.5 C1179.2,208.5 1175.2,207.3 1176,204.9 C1179.26079,196.076675 1183.3494,186.24158 1188.26582,175.394716 C1182.28454,182.81134 1175.29562,189.946609 1167.3,196.8 C1155.1,207.4 1147.2,212.3 1143.6,211.5 C1128.2,208.1 1120.5,201.1 1120.5,190.5 C1120.5,187.5 1121,183.95 1122,179.85 C1122.91772,176.087366 1124.34075,171.945742 1126.26911,167.425127 C1118.04396,178.297268 1107.52008,188.088919 1094.7,196.8 C1080.7,206.4 1071.2,210.6 1066.2,209.4 C1054.6,206.8 1048.8,202.2 1048.8,195.6 C1048.8,192.4 1052.7,181.1 1060.5,161.7 C1062.7,157.9 1065.65,152.35 1069.35,145.05 C1073.05,137.75 1077.7,128.8 1083.3,118.2 C1084.3,116.6 1086.5,115.8 1089.9,115.8 C1092.9,115.8 1095.85,116.25 1098.75,117.15 C1101.65,118.05 1102.8,118.9 1102.2,119.7 C1075.8,157.1 1062.6,183 1062.6,197.4 C1062.6,201.6 1064,203.7 1066.8,203.7 C1072.2,203.7 1080.7,199.9 1092.3,192.3 C1106.1,182.9 1117.7,171.6 1127.1,158.4 C1128.85833,155.586667 1130.61667,154.010028 1132.375,153.670083 L1152.3,108.9 C1149.3,109.3 1146,109.7 1142.4,110.1 C1138.8,110.5 1134.8,110.9 1130.4,111.3 C1129.6,111.3 1129.2,110.6 1129.2,109.2 C1129.2,106.4 1129.7,104.8 1130.7,104.4 L1155.9,100.8 L1175.4,61.2 C1177.2,57.6 1182.8,55.8 1192.2,55.8 C1196.6,55.8 1198.5,56.3 1197.9,57.3 C1193.5,64.3 1189.05,71.35 1184.55,78.45 C1180.05,85.55 1175.6,92.6 1171.2,99.6 C1171.8,99.4 1173.1,99.2 1175.1,99 C1177.1,98.8 1179.7,98.6 1182.9,98.4 C1185.3,98.2 1187.6,98.05 1189.8,97.95 C1192,97.85 1194.1,97.8 1196.1,97.8 C1204.5,97.8 1208.5,98.2 1208.1,99 C1206.7,100.4 1193.1,103.1 1167.3,107.1 C1145.5,148.3 1134.6,177.4 1134.6,194.4 C1134.6,200.6 1136.4,204.3 1140,205.5 C1142.8,206.3 1149.9,202.6 1161.3,194.4 C1167.9,189.6 1173.9,184.35 1179.3,178.65 C1184.7,172.95 1189.6,166.9 1194,160.5 C1194.85951,159.272132 1195.68132,158.421179 1196.46545,157.947141 C1199.83754,150.99657 1203.51566,143.647335 1207.5,135.9 C1231.3,89.9 1247.5,63.6 1256.1,57 C1258.5,55.2 1261.8,54.3 1266,54.3 Z M1109.1,78 C1113.7,78 1117.3,80.2 1119.9,84.6 C1120.1,84.8 1120.2,85.2 1120.2,85.8 C1120.2,87.6 1119.2,90.2 1117.2,93.6 C1114.6,98.4 1112.7,100.9 1111.5,101.1 C1108.3,101.5 1104.85,101.1 1101.15,99.9 C1097.45,98.7 1095.6,97.2 1095.6,95.4 C1095.6,94.2 1096,92.95 1096.8,91.65 C1097.6,90.35 1098.6,89 1099.8,87.6 C1103.2,83.4 1105.2,80.75 1105.8,79.65 C1106.4,78.55 1107.5,78 1109.1,78 Z" id="Combined-Shape" fill="#F8F7F4"></path>
        <path d="M90.3,285.25 L227.85,462.7 L227.85,325.5 C227.85,315.466667 224.816667,306.833333 218.75,299.6 C212.683333,292.366667 204.633333,288.75 194.6,288.75 L194.6,285.25 L267.05,285.25 L267.05,288.75 C257.016667,288.75 248.966667,292.366667 242.9,299.6 C236.833333,306.833333 233.8,315.466667 233.8,325.5 L233.8,552.65 L50.4,318.85 C48.7666667,316.75 46.9583333,314.65 44.975,312.55 C42.9916667,310.45 41.1833333,308.7 39.55,307.3 L39.55,507.5 C39.55,517.533333 42.5833333,526.166667 48.65,533.4 C54.7166667,540.633333 62.7666667,544.25 72.8,544.25 L72.8,547.75 L-3.69482223e-13,547.75 L-3.69482223e-13,544.25 C10.2666667,544.25 18.4333333,540.633333 24.5,533.4 C30.5666667,526.166667 33.6,517.416667 33.6,507.15 L33.6,302.4 C23.1,294.466667 12.0166667,289.916667 0.35,288.75 L0.35,285.25 L90.3,285.25 Z M1030.1,280.35 C1036.16667,280.35 1041.125,280.583333 1044.975,281.05 C1048.825,281.516667 1052.55833,282.1 1056.175,282.8 C1059.79167,283.5 1064.05,284.083333 1068.95,284.55 C1073.85,285.016667 1080.15,285.25 1087.85,285.25 L1091.35,355.95 L1087.85,355.95 C1084.58333,334.25 1077.58333,317.1 1066.85,304.5 C1056.11667,291.9 1043.16667,285.6 1028,285.6 C1017.26667,285.6 1008.69167,288.75 1002.275,295.05 C995.858333,301.35 992.65,309.75 992.65,320.25 C992.65,329.35 995.625,338.041667 1001.575,346.325 C1007.525,354.608333 1017.85,364.233333 1032.55,375.2 L1047.6,386.4 C1063,397.6 1075.19167,407.925 1084.175,417.375 C1093.15833,426.825 1099.63333,435.983333 1103.6,444.85 C1107.56667,453.716667 1109.55,463.166667 1109.55,473.2 C1109.55,488.6 1105.7,502.25 1098,514.15 C1090.3,526.05 1079.625,535.325 1065.975,541.975 C1052.325,548.625 1036.28333,552.183333 1017.85,552.65 C1011.78333,552.65 1006.825,552.416667 1002.975,551.95 C999.125,551.483333 995.333333,550.9 991.6,550.2 C987.866667,549.5 983.316667,548.916667 977.95,548.45 C972.583333,547.983333 965.233333,547.75 955.9,547.75 L943.65,456.75 L947.85,456.75 C951.35,485.45 959.341667,507.558333 971.825,523.075 C984.308333,538.591667 1000.35,546.35 1019.95,546.35 C1034.41667,546.35 1046.2,542.266667 1055.3,534.1 C1064.4,525.933333 1068.95,515.316667 1068.95,502.25 C1068.95,496.65 1067.95833,491.283333 1065.975,486.15 C1063.99167,481.016667 1060.66667,475.533333 1056,469.7 C1051.33333,463.866667 1045.15,457.508333 1037.45,450.625 C1029.75,443.741667 1020.18333,435.983333 1008.75,427.35 L994.4,416.5 C976.9,403.2 964.766667,391.3 958,380.8 C951.233333,370.3 947.85,358.866667 947.85,346.5 C947.85,325.966667 955.375,309.808333 970.425,298.025 C985.475,286.241667 1005.36667,280.35 1030.1,280.35 Z M386.4,280 L477.4,506.1 C487.666667,531.533333 499.1,544.25 511.7,544.25 L512.75,544.25 L512.75,547.75 L400.75,547.75 L400.75,544.25 L402.15,544.25 C412.65,544.25 419.708333,541.041667 423.325,534.625 C426.941667,528.208333 426.416667,519.283333 421.75,507.85 L400.75,455.7 L316.4,455.7 L296.8,504.35 C292.6,514.383333 293.125,523.425 298.375,531.475 C303.625,539.525 312.083333,543.783333 323.75,544.25 L323.75,547.75 L255.5,547.75 L255.5,544.25 C259.933333,543.783333 264.425,541.625 268.975,537.775 C273.525,533.925 277.783333,529.083333 281.75,523.25 C285.716667,517.416667 288.75,511.7 290.85,506.1 L383.25,280 L386.4,280 Z M703.95,285.25 L714.1,355.95 L710.6,355.95 C707.8,338.45 702.375,324.916667 694.325,315.35 C686.275,305.783333 676.708333,299.191667 665.625,295.575 C654.541667,291.958333 643.05,290.15 631.15,290.15 L622.05,290.15 L622.05,516.25 C622.05,524.65 624.616667,531.416667 629.75,536.55 C634.883333,541.683333 641.65,544.25 650.05,544.25 L650.4,547.75 L539.1,547.75 L539.45,544.25 L539.8,544.25 C548.2,544.25 554.966667,541.683333 560.1,536.55 C565.233333,531.416667 567.8,524.65 567.8,516.25 L567.8,290.15 L557.65,290.15 C546.216667,290.15 535.016667,291.958333 524.05,295.575 C513.083333,299.191667 503.633333,305.725 495.7,315.175 C487.766667,324.625 482.4,338.216667 479.6,355.95 L476.1,355.95 L485.9,285.25 L703.95,285.25 Z M818.7,280 L909.7,506.1 C919.966667,531.533333 931.4,544.25 944,544.25 L945.05,544.25 L945.05,547.75 L833.05,547.75 L833.05,544.25 L834.45,544.25 C844.95,544.25 852.008333,541.041667 855.625,534.625 C859.241667,528.208333 858.716667,519.283333 854.05,507.85 L833.05,455.7 L748.7,455.7 L729.1,504.35 C724.9,514.383333 725.425,523.425 730.675,531.475 C735.925,539.525 744.383333,543.783333 756.05,544.25 L756.05,547.75 L687.8,547.75 L687.8,544.25 C692.233333,543.783333 696.725,541.625 701.275,537.775 C705.825,533.925 710.083333,529.083333 714.05,523.25 C718.016667,517.416667 721.05,511.7 723.15,506.1 L815.55,280 L818.7,280 Z M359.1,350.35 L318.15,451.15 L399,451.15 L359.1,350.35 Z M791.4,350.35 L750.45,451.15 L831.3,451.15 L791.4,350.35 Z M1224,285.25 L1224,288.75 L1223.65,288.75 C1215.25,288.75 1208.48333,291.316667 1203.35,296.45 C1198.21667,301.583333 1195.65,308.35 1195.65,316.75 L1195.65,526.05 C1195.65,541.916667 1192.09167,556.15 1184.975,568.75 C1177.85833,581.35 1167.94167,591.5 1155.225,599.2 C1142.50833,606.9 1127.75,611.566667 1110.95,613.2 L1110.6,610.05 C1120.4,609.116667 1128.21667,601.066667 1134.05,585.9 C1139.88333,570.733333 1142.8,550.783333 1142.8,526.05 L1142.8,316.75 C1142.8,308.35 1140.23333,301.583333 1135.1,296.45 C1129.96667,291.316667 1123.2,288.75 1114.8,288.75 L1114.1,288.75 L1114.1,285.25 L1224,285.25 Z M1346.5,280 L1437.5,506.1 C1447.76667,531.533333 1459.2,544.25 1471.8,544.25 L1472.85,544.25 L1472.85,547.75 L1360.85,547.75 L1360.85,544.25 L1362.25,544.25 C1372.75,544.25 1379.80833,541.041667 1383.425,534.625 C1387.04167,528.208333 1386.51667,519.283333 1381.85,507.85 L1360.85,455.7 L1276.5,455.7 L1256.9,504.35 C1252.7,514.383333 1253.225,523.425 1258.475,531.475 C1263.725,539.525 1272.18333,543.783333 1283.85,544.25 L1283.85,547.75 L1215.6,547.75 L1215.6,544.25 C1220.03333,543.783333 1224.525,541.625 1229.075,537.775 C1233.625,533.925 1237.88333,529.083333 1241.85,523.25 C1245.81667,517.416667 1248.85,511.7 1250.95,506.1 L1343.35,280 L1346.5,280 Z M1319.2,350.35 L1278.25,451.15 L1359.1,451.15 L1319.2,350.35 Z" id="Combined-Shape" fill="#A8BE3F"></path>
    </g>
</svg>